<svg width="32" height="32" viewBox="0 0 32 32" fill="none" xmlns="http://www.w3.org/2000/svg">
<path fill-rule="evenodd" clip-rule="evenodd" d="M16 0.00646973C20.3453 0.00646973 20.8902 0.0248882 22.5968 0.102754C24.2998 0.180429 25.4629 0.450927 26.4806 0.846481C27.5327 1.25531 28.425 1.8024 29.3146 2.69189C30.2041 3.58144 30.7512 4.47372 31.1601 5.52586C31.5555 6.54358 31.826 7.70668 31.9037 9.40969C31.9816 11.1163 32 11.6611 32 16.0065C32 20.3518 31.9816 20.8967 31.9037 22.6032C31.826 24.3063 31.5555 25.4694 31.1601 26.4871C30.7512 27.5392 30.2041 28.4315 29.3146 29.3211C28.425 30.2105 27.5327 30.7576 26.4806 31.1665C25.4629 31.562 24.2998 31.8325 22.5968 31.9102C20.8902 31.988 20.3453 32.0065 16 32.0065C11.6547 32.0065 11.1098 31.988 9.40322 31.9102C7.70021 31.8325 6.53711 31.562 5.51939 31.1665C4.46725 30.7576 3.57497 30.2105 2.68542 29.3211C1.79593 28.4315 1.24884 27.5392 0.840011 26.4871C0.444458 25.4694 0.17396 24.3063 0.0962843 22.6032C0.0184185 20.8967 0 20.3518 0 16.0065C0 11.6611 0.0184185 11.1163 0.0962843 9.40969C0.17396 7.70668 0.444458 6.54358 0.840011 5.52586C1.24884 4.47372 1.79593 3.58144 2.68542 2.69189C3.57497 1.8024 4.46725 1.25531 5.51939 0.846481C6.53711 0.450927 7.70021 0.180429 9.40322 0.102754C11.1098 0.0248882 11.6547 0.00646973 16 0.00646973ZM16 2.88935C11.7278 2.88935 11.2218 2.90567 9.53463 2.98265C7.97464 3.05378 7.12745 3.31443 6.56366 3.53355C5.81682 3.8238 5.28383 4.17051 4.72397 4.73044C4.16404 5.2903 3.81733 5.82329 3.52708 6.57013C3.30796 7.13392 3.04731 7.98111 2.97618 9.5411C2.8992 11.2282 2.88288 11.7343 2.88288 16.0065C2.88288 20.2786 2.8992 20.7847 2.97618 22.4718C3.04731 24.0318 3.30796 24.879 3.52708 25.4428C3.81733 26.1896 4.16411 26.7226 4.72397 27.2825C5.28383 27.8424 5.81682 28.1891 6.56366 28.4794C7.12745 28.6985 7.97464 28.9592 9.53463 29.0303C11.2216 29.1073 11.7275 29.1236 16 29.1236C20.2725 29.1236 20.7785 29.1073 22.4654 29.0303C24.0254 28.9592 24.8725 28.6985 25.4363 28.4794C26.1832 28.1891 26.7162 27.8424 27.276 27.2825C27.836 26.7226 28.1827 26.1896 28.4729 25.4428C28.692 24.879 28.9527 24.0318 29.0238 22.4718C29.1008 20.7847 29.1171 20.2786 29.1171 16.0065C29.1171 11.7343 29.1008 11.2282 29.0238 9.5411C28.9527 7.98111 28.692 7.13392 28.4729 6.57013C28.1827 5.82329 27.836 5.2903 27.276 4.73044C26.7162 4.17051 26.1832 3.8238 25.4363 3.53355C24.8725 3.31443 24.0254 3.05378 22.4654 2.98265C20.7782 2.90567 20.2722 2.88935 16 2.88935ZM16 21.3398C18.9455 21.3398 21.3333 18.952 21.3333 16.0065C21.3333 13.0609 18.9455 10.6731 16 10.6731C13.0545 10.6731 10.6667 13.0609 10.6667 16.0065C10.6667 18.952 13.0545 21.3398 16 21.3398ZM16 7.79026C20.5377 7.79026 24.2162 11.4688 24.2162 16.0065C24.2162 20.5442 20.5377 24.2227 16 24.2227C11.4623 24.2227 7.78379 20.5442 7.78379 16.0065C7.78379 11.4688 11.4623 7.79026 16 7.79026ZM24.0076 9.99953C22.9027 9.99953 22.0069 9.10381 22.0069 7.9989C22.0069 6.89398 22.9027 5.99826 24.0076 5.99826C25.1125 5.99826 26.0082 6.89398 26.0082 7.9989C26.0082 9.10381 25.1125 9.99953 24.0076 9.99953Z" fill="white"/>
</svg>
