<svg width="32" height="32" viewBox="0 0 32 32" fill="none" xmlns="http://www.w3.org/2000/svg">
<path fill-rule="evenodd" clip-rule="evenodd" d="M28 0C30.2091 0 32 1.79086 32 4V28C32 30.2091 30.2091 32 28 32H4C1.79086 32 0 30.2091 0 28V4C0 1.79086 1.79086 0 4 0H28ZM8 12H4V26H8V12ZM16 12H12V26H16V19L16.0137 18.7111C16.1591 17.1898 17.4406 16 19 16C20.5594 16 21.8409 17.1898 21.9863 18.7111L22 19V26H26V18L25.9898 17.6475C25.8073 14.4978 23.1954 12 20 12C18.617 12 17.3434 12.4679 16.3286 13.254L16.0002 13.5276L16 12ZM6 6C4.89543 6 4 6.89543 4 8C4 9.10457 4.89543 10 6 10C7.10457 10 8 9.10457 8 8C8 6.89543 7.10457 6 6 6Z" fill="white"/>
</svg>
