<svg width="48" height="48" viewBox="0 0 48 48" fill="none" xmlns="http://www.w3.org/2000/svg">
<circle cx="24" cy="24" r="24" fill="#6F34FE"/>
<g clip-path="url(#clip0_1453_62)">
<path d="M33.1385 12.5215H33.0166C31.1101 12.5215 29.2833 13.2371 27.8752 14.5361C26.8181 15.5115 25.4414 16.0479 23.9994 16.0479C22.5575 16.0479 21.1819 15.5115 20.1249 14.5361C18.7168 13.2371 16.8911 12.5215 14.9834 12.5215H14.8616C10.695 12.5215 7.30438 15.9012 7.30438 20.0543C7.30438 24.2073 10.695 27.587 14.8616 27.587H15.1922C17.042 27.587 18.8254 26.9111 20.2118 25.6831C21.2543 24.7606 22.5961 24.2518 23.9922 24.2506C23.9946 24.2506 23.997 24.2506 23.9994 24.2506C24.0163 24.2506 24.0344 24.2506 24.0513 24.2518C24.1852 24.253 24.318 24.259 24.4507 24.2699C24.4857 24.2723 24.5207 24.2747 24.5557 24.2783C24.6957 24.2915 24.8344 24.312 24.972 24.3348C25.0094 24.3408 25.0456 24.348 25.083 24.3541C25.2181 24.3805 25.3521 24.4106 25.4848 24.4467C25.5234 24.4575 25.5608 24.4683 25.5982 24.4791C25.7273 24.5164 25.8552 24.5585 25.9807 24.6042C26.0218 24.6199 26.0628 24.6367 26.1026 24.6523C26.2112 24.6956 26.3198 24.7413 26.4248 24.7919C26.4815 24.8183 26.537 24.8472 26.5937 24.8748C26.677 24.9169 26.759 24.9614 26.8399 25.0083C26.9147 25.0516 26.9895 25.0961 27.0619 25.1431C27.1307 25.1863 27.1982 25.2321 27.2646 25.2778C27.3418 25.3319 27.4178 25.3872 27.4926 25.4449C27.5566 25.4943 27.6193 25.5448 27.6821 25.5977C28.9189 26.6429 29.7068 28.2004 29.7068 29.9396C29.7068 33.0775 27.1463 35.6298 23.9982 35.6298C20.8501 35.6298 18.2896 33.0775 18.2896 29.9396C18.2896 29.4056 17.8552 28.9738 17.3207 28.9738C16.7861 28.9738 16.3518 29.4068 16.3518 29.9396C16.3518 34.1432 19.7822 37.5626 23.9994 37.5626C28.2166 37.5626 31.6471 34.1432 31.6471 29.9396C31.6471 27.6929 30.6661 25.6699 29.1095 24.2735C29.0975 24.2614 29.0878 24.247 29.0745 24.2362C28.353 23.5975 27.5228 23.108 26.6311 22.7821C26.6239 22.7797 26.6178 22.7773 26.6106 22.7749C26.5056 22.7376 26.4006 22.7015 26.2945 22.6678C26.2715 22.6606 26.2486 22.6534 26.2257 22.6474C26.134 22.6197 26.0423 22.5932 25.9494 22.5692C25.918 22.5608 25.8866 22.5535 25.8552 22.5451C25.7684 22.5235 25.6803 22.503 25.5922 22.485C25.5584 22.4778 25.5246 22.4706 25.4908 22.4645C25.4015 22.4465 25.311 22.4309 25.2205 22.4164C25.1892 22.4116 25.1578 22.4056 25.1276 22.402C25.0275 22.3876 24.9261 22.3743 24.826 22.3635C24.8055 22.3611 24.7837 22.3587 24.7632 22.3563C24.5098 22.331 24.2552 22.3166 23.9982 22.3166C22.1243 22.3166 20.3216 22.9986 18.9231 24.2374C17.8914 25.1503 16.5665 25.653 15.191 25.653H14.8604C11.7629 25.653 9.24224 23.1405 9.24224 20.0531C9.24224 16.9656 11.7641 14.4543 14.8616 14.4543H14.9834C16.4012 14.4543 17.7587 14.9871 18.8085 15.9541C20.2251 17.2603 22.0688 17.9795 24.0006 17.9795C25.9325 17.9795 27.7762 17.2603 29.1928 15.9541C30.2414 14.9871 31.6 14.4543 33.0178 14.4543H33.1397C36.2372 14.4543 38.7578 16.9668 38.7578 20.0543C38.7578 23.1417 36.2372 25.6542 33.1397 25.6542C32.604 25.6542 32.1708 26.0872 32.1708 26.62C32.1708 27.1528 32.6052 27.5858 33.1397 27.5858C37.3062 27.5858 40.6969 24.2061 40.6969 20.0531C40.6969 15.9 37.305 12.5215 33.1385 12.5215Z" fill="#FCA61E"/>
</g>
<defs>
<clipPath id="clip0_1453_62">
<rect width="33.3913" height="25.0435" fill="white" transform="translate(7.30438 12.5215)"/>
</clipPath>
</defs>
</svg>
